<svg id="Layer_1" data-name="Layer 1" xmlns="http://www.w3.org/2000/svg" viewBox="0 0 1088.37 163"><defs><style>.cls-1{fill:red;}</style></defs><title>extensive-digital-logo2</title><path d="M295.9,53.74l-1.62,11.31H264.85V87.32h25.62V98.64H264.85v23.43h31.51v11.42H249.61V53.74Z" transform="translate(-18.7 -17.5)"/><path d="M339.07,100.83l20.43,32.66H342.41l-12.58-24.24-12.46,24.24H301.09l20.32-32.2L303.17,72.44H320l10.39,20.77,10.27-20.77h16.05Z" transform="translate(-18.7 -17.5)"/><path d="M403,130.61a23.69,23.69,0,0,1-7.21,3.46,29.11,29.11,0,0,1-8.14,1.15q-9-.1-13.68-5.13t-4.67-14.83V83.05h-9.58V72.44h9.58V58.93l14.77-1.73V72.44h14.2l-1.5,10.61h-12.7v31.86c0,3,.52,5.16,1.56,6.46a5.88,5.88,0,0,0,4.9,2,15,15,0,0,0,7.27-2.2Z" transform="translate(-18.7 -17.5)"/><path d="M459.1,107.52H420.78c.47,5.93,2,10.16,4.62,12.7s6.08,3.81,10.39,3.81a21.65,21.65,0,0,0,7.62-1.33,35.23,35.23,0,0,0,7.61-4.1l6.12,8.43a35.15,35.15,0,0,1-22.62,8.19q-14,0-21.53-8.54t-7.56-23.31a41.74,41.74,0,0,1,3.24-16.8A26.66,26.66,0,0,1,418,74.92a25,25,0,0,1,14.55-4.22q12.81,0,19.85,8.14t7,22.68C459.45,102.29,459.34,104.29,459.1,107.52ZM444.79,97.25q0-16-11.89-16a10.08,10.08,0,0,0-8.48,4c-2,2.65-3.25,6.91-3.64,12.75h24Z" transform="translate(-18.7 -17.5)"/><path d="M518,75.61q4.56,4.9,4.56,13.68v44.2H507.81V91.6q0-5.43-1.9-7.62a7,7,0,0,0-5.6-2.2,10.94,10.94,0,0,0-6.87,2.37A27,27,0,0,0,487.5,91v42.47H472.72V72.44h12.82l1.15,8q7.5-9.69,18.58-9.7Q513.48,70.7,518,75.61Z" transform="translate(-18.7 -17.5)"/><path d="M580.76,78,575,86.63q-7.86-5-15.36-5a11.88,11.88,0,0,0-6.8,1.67,5.17,5.17,0,0,0-2.43,4.45,5.62,5.62,0,0,0,1,3.46,9.48,9.48,0,0,0,3.75,2.6,64.14,64.14,0,0,0,8,2.71q9.93,2.66,14.72,7t4.79,12.23a16.4,16.4,0,0,1-7.39,14.26q-7.38,5.13-18.35,5.13a39,39,0,0,1-13.68-2.3,33.31,33.31,0,0,1-10.67-6.35l7.38-8.31q8,6,16.62,6a14.06,14.06,0,0,0,7.91-2,6.19,6.19,0,0,0,2.94-5.43,7.2,7.2,0,0,0-1.09-4.21,9,9,0,0,0-3.93-2.77,80.81,80.81,0,0,0-8.83-2.94q-9.35-2.55-13.73-7.1a15.73,15.73,0,0,1-4.39-11.37,15,15,0,0,1,3-9.12A19.54,19.54,0,0,1,546.77,73a30.79,30.79,0,0,1,12.29-2.31A34.36,34.36,0,0,1,580.76,78Z" transform="translate(-18.7 -17.5)"/><path d="M608.75,44.1a8.7,8.7,0,0,1,2.59,6.4,8.51,8.51,0,0,1-2.59,6.35A9.23,9.23,0,0,1,602,59.39a9.06,9.06,0,0,1-6.64-2.54,8.52,8.52,0,0,1-2.6-6.35,8.71,8.71,0,0,1,2.6-6.4A9,9,0,0,1,602,41.5,9.15,9.15,0,0,1,608.75,44.1Zm.75,28.34v61.05H594.72V72.44Z" transform="translate(-18.7 -17.5)"/><path d="M676.33,72.44l-19.86,61.05H638.81L618.62,72.44h16l13,49.16,13.39-49.16Z" transform="translate(-18.7 -17.5)"/><path d="M734.5,107.52H696.18q.69,8.9,4.61,12.7T711.18,124a21.57,21.57,0,0,0,7.62-1.33,35.28,35.28,0,0,0,7.62-4.1l6.12,8.43a35.2,35.2,0,0,1-22.63,8.19q-14,0-21.52-8.54t-7.56-23.31a41.74,41.74,0,0,1,3.23-16.8,26.61,26.61,0,0,1,9.35-11.65A25,25,0,0,1,708,70.7q12.81,0,19.85,8.14t7,22.68Q734.84,102.68,734.5,107.52ZM720.19,97.25q0-16-11.89-16a10.09,10.09,0,0,0-8.49,4c-2,2.65-3.25,6.91-3.63,12.75h24Z" transform="translate(-18.7 -17.5)"/><path d="M826.78,62.16q11.13,8.43,11.14,31.05,0,22.17-11,31.22t-27.82,9.06H777.44V53.74h19.62Q815.63,53.74,826.78,62.16Zm-34.11,3v56.91h7.5q10.16,0,15.93-6.29t5.77-22.57q0-11.31-2.94-17.49t-7.73-8.36a27.51,27.51,0,0,0-11.49-2.2Z" transform="translate(-18.7 -17.5)"/><path d="M865.79,44.1a8.71,8.71,0,0,1,2.6,6.4,8.52,8.52,0,0,1-2.6,6.35A9.21,9.21,0,0,1,859,59.39a9.06,9.06,0,0,1-6.64-2.54,8.52,8.52,0,0,1-2.6-6.35,8.71,8.71,0,0,1,2.6-6.4A9,9,0,0,1,859,41.5,9.13,9.13,0,0,1,865.79,44.1Zm.75,28.34v61.05H851.77V72.44Z" transform="translate(-18.7 -17.5)"/><path d="M937.41,75.67q-5.89,2.07-17.66,2.07a20.35,20.35,0,0,1,8.37,6.3,15.67,15.67,0,0,1,2.71,9.4,19.35,19.35,0,0,1-2.94,10.62,20,20,0,0,1-8.54,7.27,30.3,30.3,0,0,1-13.1,2.66,25.59,25.59,0,0,1-7.28-.93,5.27,5.27,0,0,0-2.54,4.51c0,2.84,2.47,4.27,7.39,4.27h9.35A29.14,29.14,0,0,1,924.89,124a18,18,0,0,1,7.79,6.17,15.37,15.37,0,0,1,2.77,9,16.27,16.27,0,0,1-7.85,14.37q-7.86,5.13-22.62,5.14-10.62,0-16.68-2.2t-8.6-6.35a20,20,0,0,1-2.54-10.61h13.27a9.23,9.23,0,0,0,1.21,5.07,7.48,7.48,0,0,0,4.39,2.77,34.59,34.59,0,0,0,9.18.93c5.61,0,9.58-.7,11.88-2.08a6.62,6.62,0,0,0,3.47-6,6.23,6.23,0,0,0-2.66-5.37q-2.65-1.9-7.73-1.9h-9.23q-8.66,0-13.05-3.35a10.2,10.2,0,0,1-4.38-8.43,11.46,11.46,0,0,1,1.9-6.23,16.28,16.28,0,0,1,5.25-5.08,20.11,20.11,0,0,1-8.13-7.1,18.76,18.76,0,0,1-2.6-10.1,20.72,20.72,0,0,1,3.23-11.54,21.28,21.28,0,0,1,9-7.67,30.16,30.16,0,0,1,13.1-2.72q9.69.24,15.64-1.44a64.71,64.71,0,0,0,12.87-5.37Zm-39.76,8.25a12.26,12.26,0,0,0-2.83,8.48c0,3.7,1,6.62,2.88,8.78a10.16,10.16,0,0,0,8,3.23q5.31,0,8.08-3.18c1.84-2.11,2.77-5.09,2.77-8.94q0-11.55-11.08-11.54A9.87,9.87,0,0,0,897.65,83.92Z" transform="translate(-18.7 -17.5)"/><path d="M960.32,44.1a8.71,8.71,0,0,1,2.6,6.4,8.52,8.52,0,0,1-2.6,6.35,9.21,9.21,0,0,1-6.75,2.54,9.06,9.06,0,0,1-6.64-2.54,8.52,8.52,0,0,1-2.6-6.35,8.71,8.71,0,0,1,2.6-6.4,9,9,0,0,1,6.64-2.6A9.13,9.13,0,0,1,960.32,44.1Zm.75,28.34v61.05H946.29V72.44Z" transform="translate(-18.7 -17.5)"/><path d="M1013.82,130.61a23.64,23.64,0,0,1-7.22,3.46,29,29,0,0,1-8.14,1.15q-9-.1-13.67-5.13t-4.68-14.83V83.05h-9.58V72.44h9.58V58.93l14.78-1.73V72.44h14.19l-1.5,10.61H994.89v31.86c0,3,.52,5.16,1.56,6.46a5.86,5.86,0,0,0,4.9,2,15,15,0,0,0,7.27-2.2Z" transform="translate(-18.7 -17.5)"/><path d="M1067.2,122.59a7,7,0,0,0,3.52,2.59L1067.6,135a18.7,18.7,0,0,1-8.48-2.54,13,13,0,0,1-5-6.34,19.66,19.66,0,0,1-7.79,6.86,23.8,23.8,0,0,1-10.45,2.25q-9.12,0-14.42-5.19t-5.31-13.62q0-9.93,7.21-15.18t20.6-5.25h7.62V92.52q0-5.89-2.71-8.25t-8.72-2.37q-6.69,0-16.16,3.23l-3.46-10a61.8,61.8,0,0,1,22.16-4.39q23.43,0,23.43,21v25.62A9.84,9.84,0,0,0,1067.2,122.59Zm-15.64-5.6V104.64h-6.12q-14.31,0-14.31,10.62a9.81,9.81,0,0,0,2.19,6.81q2.19,2.42,6.47,2.42Q1047.29,124.49,1051.56,117Z" transform="translate(-18.7 -17.5)"/><path d="M1086.24,131.13q-4-4.09-4-11.6V48L1097,46.35v72.72c0,2.84,1.15,4.27,3.46,4.27a11,11,0,0,0,3.46-.58l3.12,10.39a23.72,23.72,0,0,1-9.81,2.07Q1090.22,135.22,1086.24,131.13Z" transform="translate(-18.7 -17.5)"/><path class="cls-1" d="M212,168.5H172a81.48,81.48,0,0,0-42.52-151c-.33,0-.66,0-1,0a4.24,4.24,0,0,0-.51,0H44.5c-7.72,0-7.73,12,0,12H87a81.47,81.47,0,0,0,40.75,151c.25,0,.5,0,.77,0H212C219.72,180.5,219.73,168.5,212,168.5ZM62,99a67.5,67.5,0,1,1,67.5,67.5A67.58,67.58,0,0,1,62,99Z" transform="translate(-18.7 -17.5)"/><path class="cls-1" d="M24.5,29.5c7.72,0,7.73-12,0-12s-7.73,12,0,12Z" transform="translate(-18.7 -17.5)"/><path class="cls-1" d="M232,180.5c7.72,0,7.73-12,0-12s-7.73,12,0,12Z" transform="translate(-18.7 -17.5)"/></svg>
